<mxfile host="app.diagrams.net" agent="Mozilla/5.0 (Macintosh; Intel Mac OS X 10_15_7) AppleWebKit/605.1.15 (KHTML, like Gecko) Version/17.5 Safari/605.1.15" version="24.7.6">
  <diagram name="Page-1" id="v5vVpCWD-mAS1wMJKQEE">
    <mxGraphModel dx="397" dy="815" grid="1" gridSize="10" guides="1" tooltips="1" connect="1" arrows="1" fold="1" page="1" pageScale="1" pageWidth="827" pageHeight="1169" math="0" shadow="0">
      <root>
        <mxCell id="0" />
        <mxCell id="1" parent="0" />
        <mxCell id="0vZ9dUC26-TVfk1JdIGi-31" value="Docker Image" style="rounded=0;whiteSpace=wrap;html=1;spacingTop=440;fillColor=#f5f5f5;fontColor=#333333;strokeColor=#666666;" parent="1" vertex="1">
          <mxGeometry x="957" width="470" height="480" as="geometry" />
        </mxCell>
        <mxCell id="0vZ9dUC26-TVfk1JdIGi-30" value="Gunicorn" style="rounded=0;whiteSpace=wrap;html=1;spacingTop=401;fillColor=#f5f5f5;fontColor=#333333;strokeColor=#666666;" parent="1" vertex="1">
          <mxGeometry x="957" width="470" height="440" as="geometry" />
        </mxCell>
        <mxCell id="0vZ9dUC26-TVfk1JdIGi-29" value="Uvicorn" style="rounded=0;whiteSpace=wrap;html=1;spacingTop=362;fillColor=#f5f5f5;fontColor=#333333;strokeColor=#666666;" parent="1" vertex="1">
          <mxGeometry x="957" width="470" height="400" as="geometry" />
        </mxCell>
        <mxCell id="0vZ9dUC26-TVfk1JdIGi-27" value="&lt;b&gt;Backend FastAPI service&lt;/b&gt;" style="rounded=1;whiteSpace=wrap;html=1;spacingTop=-300;fillColor=#ffe6cc;strokeColor=#d79b00;" parent="1" vertex="1">
          <mxGeometry x="967" y="10" width="450" height="350" as="geometry" />
        </mxCell>
        <mxCell id="0vZ9dUC26-TVfk1JdIGi-15" style="edgeStyle=orthogonalEdgeStyle;rounded=0;orthogonalLoop=1;jettySize=auto;html=1;exitX=0;exitY=0.25;exitDx=0;exitDy=0;entryX=1;entryY=0.25;entryDx=0;entryDy=0;" parent="1" source="0vZ9dUC26-TVfk1JdIGi-11" target="0vZ9dUC26-TVfk1JdIGi-14" edge="1">
          <mxGeometry relative="1" as="geometry" />
        </mxCell>
        <mxCell id="0vZ9dUC26-TVfk1JdIGi-35" style="edgeStyle=orthogonalEdgeStyle;rounded=0;orthogonalLoop=1;jettySize=auto;html=1;exitX=1;exitY=0.25;exitDx=0;exitDy=0;entryX=0;entryY=0.5;entryDx=0;entryDy=0;startArrow=classic;startFill=1;" parent="1" source="0vZ9dUC26-TVfk1JdIGi-11" target="0vZ9dUC26-TVfk1JdIGi-32" edge="1">
          <mxGeometry relative="1" as="geometry" />
        </mxCell>
        <mxCell id="0vZ9dUC26-TVfk1JdIGi-36" style="edgeStyle=orthogonalEdgeStyle;rounded=0;orthogonalLoop=1;jettySize=auto;html=1;exitX=1;exitY=0.5;exitDx=0;exitDy=0;entryX=0;entryY=0.5;entryDx=0;entryDy=0;startArrow=classic;startFill=1;" parent="1" source="0vZ9dUC26-TVfk1JdIGi-11" target="0vZ9dUC26-TVfk1JdIGi-33" edge="1">
          <mxGeometry relative="1" as="geometry">
            <Array as="points">
              <mxPoint x="1257" y="150" />
              <mxPoint x="1257" y="170" />
            </Array>
          </mxGeometry>
        </mxCell>
        <mxCell id="0vZ9dUC26-TVfk1JdIGi-37" style="edgeStyle=orthogonalEdgeStyle;rounded=0;orthogonalLoop=1;jettySize=auto;html=1;exitX=1;exitY=0.75;exitDx=0;exitDy=0;entryX=0;entryY=0.5;entryDx=0;entryDy=0;startArrow=classic;startFill=1;" parent="1" source="0vZ9dUC26-TVfk1JdIGi-11" target="0vZ9dUC26-TVfk1JdIGi-34" edge="1">
          <mxGeometry relative="1" as="geometry">
            <Array as="points">
              <mxPoint x="1237" y="165" />
              <mxPoint x="1237" y="270" />
            </Array>
          </mxGeometry>
        </mxCell>
        <mxCell id="0vZ9dUC26-TVfk1JdIGi-11" value="Pydantic Models" style="rounded=0;whiteSpace=wrap;html=1;" parent="1" vertex="1">
          <mxGeometry x="1127" y="120" width="90" height="60" as="geometry" />
        </mxCell>
        <mxCell id="0vZ9dUC26-TVfk1JdIGi-16" style="edgeStyle=orthogonalEdgeStyle;rounded=0;orthogonalLoop=1;jettySize=auto;html=1;exitX=1;exitY=0.75;exitDx=0;exitDy=0;entryX=0;entryY=0.75;entryDx=0;entryDy=0;" parent="1" source="0vZ9dUC26-TVfk1JdIGi-14" target="0vZ9dUC26-TVfk1JdIGi-11" edge="1">
          <mxGeometry relative="1" as="geometry" />
        </mxCell>
        <mxCell id="0vZ9dUC26-TVfk1JdIGi-18" style="edgeStyle=orthogonalEdgeStyle;rounded=0;orthogonalLoop=1;jettySize=auto;html=1;exitX=0;exitY=0.25;exitDx=0;exitDy=0;entryX=1;entryY=0.313;entryDx=0;entryDy=0;entryPerimeter=0;" parent="1" source="0vZ9dUC26-TVfk1JdIGi-14" edge="1" target="0vZ9dUC26-TVfk1JdIGi-24">
          <mxGeometry relative="1" as="geometry">
            <mxPoint x="907" y="135" as="targetPoint" />
          </mxGeometry>
        </mxCell>
        <mxCell id="0vZ9dUC26-TVfk1JdIGi-14" value="SQLAlchemy" style="rounded=0;whiteSpace=wrap;html=1;" parent="1" vertex="1">
          <mxGeometry x="987" y="120" width="90" height="60" as="geometry" />
        </mxCell>
        <mxCell id="0vZ9dUC26-TVfk1JdIGi-19" style="edgeStyle=orthogonalEdgeStyle;rounded=0;orthogonalLoop=1;jettySize=auto;html=1;exitX=0.997;exitY=0.688;exitDx=0;exitDy=0;entryX=0;entryY=0.75;entryDx=0;entryDy=0;exitPerimeter=0;" parent="1" target="0vZ9dUC26-TVfk1JdIGi-14" edge="1" source="0vZ9dUC26-TVfk1JdIGi-24">
          <mxGeometry relative="1" as="geometry">
            <mxPoint x="907" y="165" as="sourcePoint" />
          </mxGeometry>
        </mxCell>
        <mxCell id="0vZ9dUC26-TVfk1JdIGi-20" value="Service Logik" style="rounded=0;whiteSpace=wrap;html=1;" parent="1" vertex="1">
          <mxGeometry x="987" y="220" width="230" height="60" as="geometry" />
        </mxCell>
        <mxCell id="0vZ9dUC26-TVfk1JdIGi-21" style="edgeStyle=orthogonalEdgeStyle;rounded=0;orthogonalLoop=1;jettySize=auto;html=1;exitX=0.75;exitY=1;exitDx=0;exitDy=0;entryX=0.893;entryY=-0.033;entryDx=0;entryDy=0;entryPerimeter=0;" parent="1" source="0vZ9dUC26-TVfk1JdIGi-11" target="0vZ9dUC26-TVfk1JdIGi-20" edge="1">
          <mxGeometry relative="1" as="geometry" />
        </mxCell>
        <mxCell id="0vZ9dUC26-TVfk1JdIGi-23" style="edgeStyle=orthogonalEdgeStyle;rounded=0;orthogonalLoop=1;jettySize=auto;html=1;exitX=0.705;exitY=0.002;exitDx=0;exitDy=0;entryX=0.25;entryY=1;entryDx=0;entryDy=0;exitPerimeter=0;" parent="1" source="0vZ9dUC26-TVfk1JdIGi-20" target="0vZ9dUC26-TVfk1JdIGi-11" edge="1">
          <mxGeometry relative="1" as="geometry" />
        </mxCell>
        <mxCell id="0vZ9dUC26-TVfk1JdIGi-24" value="Database&lt;div&gt;Postgres SQL&lt;/div&gt;" style="shape=cylinder3;whiteSpace=wrap;html=1;boundedLbl=1;backgroundOutline=1;size=15;fillColor=#e1d5e7;strokeColor=#9673a6;" parent="1" vertex="1">
          <mxGeometry x="827" y="110" width="100" height="80" as="geometry" />
        </mxCell>
        <mxCell id="0vZ9dUC26-TVfk1JdIGi-25" style="edgeStyle=orthogonalEdgeStyle;rounded=0;orthogonalLoop=1;jettySize=auto;html=1;exitX=0.75;exitY=1;exitDx=0;exitDy=0;entryX=0.293;entryY=-0.021;entryDx=0;entryDy=0;entryPerimeter=0;" parent="1" source="0vZ9dUC26-TVfk1JdIGi-14" target="0vZ9dUC26-TVfk1JdIGi-20" edge="1">
          <mxGeometry relative="1" as="geometry" />
        </mxCell>
        <mxCell id="0vZ9dUC26-TVfk1JdIGi-26" style="edgeStyle=orthogonalEdgeStyle;rounded=0;orthogonalLoop=1;jettySize=auto;html=1;exitX=0.107;exitY=-0.006;exitDx=0;exitDy=0;entryX=0.25;entryY=1;entryDx=0;entryDy=0;exitPerimeter=0;" parent="1" source="0vZ9dUC26-TVfk1JdIGi-20" target="0vZ9dUC26-TVfk1JdIGi-14" edge="1">
          <mxGeometry relative="1" as="geometry" />
        </mxCell>
        <mxCell id="0vZ9dUC26-TVfk1JdIGi-32" value="videodata_router" style="rounded=0;whiteSpace=wrap;html=1;" parent="1" vertex="1">
          <mxGeometry x="1277" y="70" width="120" height="60" as="geometry" />
        </mxCell>
        <mxCell id="0vZ9dUC26-TVfk1JdIGi-33" value="digital_twin_router" style="rounded=0;whiteSpace=wrap;html=1;" parent="1" vertex="1">
          <mxGeometry x="1277" y="140" width="120" height="60" as="geometry" />
        </mxCell>
        <mxCell id="0vZ9dUC26-TVfk1JdIGi-34" value="gps_data_router" style="rounded=0;whiteSpace=wrap;html=1;" parent="1" vertex="1">
          <mxGeometry x="1277" y="240" width="120" height="60" as="geometry" />
        </mxCell>
        <mxCell id="0vZ9dUC26-TVfk1JdIGi-38" value="" style="shape=waypoint;sketch=0;fillStyle=solid;size=6;pointerEvents=1;points=[];fillColor=none;resizable=0;rotatable=0;perimeter=centerPerimeter;snapToPoint=1;" parent="1" vertex="1">
          <mxGeometry x="1327" y="200" width="20" height="20" as="geometry" />
        </mxCell>
        <mxCell id="0vZ9dUC26-TVfk1JdIGi-39" value="" style="shape=waypoint;sketch=0;fillStyle=solid;size=6;pointerEvents=1;points=[];fillColor=none;resizable=0;rotatable=0;perimeter=centerPerimeter;snapToPoint=1;" parent="1" vertex="1">
          <mxGeometry x="1327" y="210" width="20" height="20" as="geometry" />
        </mxCell>
        <mxCell id="0vZ9dUC26-TVfk1JdIGi-40" value="" style="shape=waypoint;sketch=0;fillStyle=solid;size=6;pointerEvents=1;points=[];fillColor=none;resizable=0;rotatable=0;perimeter=centerPerimeter;snapToPoint=1;" parent="1" vertex="1">
          <mxGeometry x="1327" y="220" width="20" height="20" as="geometry" />
        </mxCell>
        <mxCell id="0vZ9dUC26-TVfk1JdIGi-41" value="&lt;b&gt;Other Services&lt;/b&gt;" style="rounded=1;whiteSpace=wrap;html=1;spacingTop=-440;fillColor=#dae8fc;strokeColor=#6c8ebf;" parent="1" vertex="1">
          <mxGeometry x="1526" width="162" height="480" as="geometry" />
        </mxCell>
        <mxCell id="0vZ9dUC26-TVfk1JdIGi-42" value="&lt;div&gt;Dronefootage store Http clients&lt;/div&gt;" style="rounded=1;whiteSpace=wrap;html=1;" parent="1" vertex="1">
          <mxGeometry x="1547" y="70" width="120" height="60" as="geometry" />
        </mxCell>
        <mxCell id="0vZ9dUC26-TVfk1JdIGi-43" value="" style="rounded=0;orthogonalLoop=1;jettySize=auto;html=1;endArrow=halfCircle;endFill=0;endSize=6;strokeWidth=1;sketch=0;exitX=0;exitY=0.5;exitDx=0;exitDy=0;" parent="1" source="0vZ9dUC26-TVfk1JdIGi-42" edge="1">
          <mxGeometry relative="1" as="geometry">
            <mxPoint x="1550" y="100" as="sourcePoint" />
            <mxPoint x="1477" y="99.66" as="targetPoint" />
          </mxGeometry>
        </mxCell>
        <mxCell id="0vZ9dUC26-TVfk1JdIGi-44" value="" style="rounded=0;orthogonalLoop=1;jettySize=auto;html=1;endArrow=oval;endFill=1;sketch=0;sourcePerimeterSpacing=0;targetPerimeterSpacing=0;endSize=10;exitX=1;exitY=0.5;exitDx=0;exitDy=0;" parent="1" edge="1">
          <mxGeometry relative="1" as="geometry">
            <mxPoint x="1401" y="100" as="sourcePoint" />
            <mxPoint x="1471" y="100" as="targetPoint" />
          </mxGeometry>
        </mxCell>
        <mxCell id="0vZ9dUC26-TVfk1JdIGi-45" value="" style="ellipse;whiteSpace=wrap;html=1;align=center;aspect=fixed;fillColor=none;strokeColor=none;resizable=0;perimeter=centerPerimeter;rotatable=0;allowArrows=0;points=[];outlineConnect=1;" parent="1" vertex="1">
          <mxGeometry x="1402" y="240" width="10" height="10" as="geometry" />
        </mxCell>
        <mxCell id="0vZ9dUC26-TVfk1JdIGi-50" value="Digital Twin&lt;div&gt;Http clients&lt;/div&gt;" style="rounded=1;whiteSpace=wrap;html=1;" parent="1" vertex="1">
          <mxGeometry x="1547" y="140" width="120" height="60" as="geometry" />
        </mxCell>
        <mxCell id="0vZ9dUC26-TVfk1JdIGi-51" value="" style="rounded=0;orthogonalLoop=1;jettySize=auto;html=1;endArrow=halfCircle;endFill=0;endSize=6;strokeWidth=1;sketch=0;exitX=0;exitY=0.5;exitDx=0;exitDy=0;entryX=0.537;entryY=0.959;entryDx=0;entryDy=0;entryPerimeter=0;" parent="1" edge="1" source="0vZ9dUC26-TVfk1JdIGi-50">
          <mxGeometry relative="1" as="geometry">
            <mxPoint x="1563" y="170" as="sourcePoint" />
            <mxPoint x="1486.77" y="170.03999999999996" as="targetPoint" />
          </mxGeometry>
        </mxCell>
        <mxCell id="0vZ9dUC26-TVfk1JdIGi-52" value="" style="rounded=0;orthogonalLoop=1;jettySize=auto;html=1;endArrow=oval;endFill=1;sketch=0;sourcePerimeterSpacing=0;targetPerimeterSpacing=0;endSize=10;exitX=1;exitY=0.5;exitDx=0;exitDy=0;entryX=0.542;entryY=-0.013;entryDx=0;entryDy=0;entryPerimeter=0;" parent="1" target="0vZ9dUC26-TVfk1JdIGi-56" edge="1">
          <mxGeometry relative="1" as="geometry">
            <mxPoint x="1397" y="170" as="sourcePoint" />
            <mxPoint x="1467" y="170" as="targetPoint" />
          </mxGeometry>
        </mxCell>
        <mxCell id="0vZ9dUC26-TVfk1JdIGi-53" value="&lt;div&gt;Lader GPS tracking Http clients&lt;/div&gt;" style="rounded=1;whiteSpace=wrap;html=1;" parent="1" vertex="1">
          <mxGeometry x="1547" y="240" width="120" height="60" as="geometry" />
        </mxCell>
        <mxCell id="0vZ9dUC26-TVfk1JdIGi-54" value="" style="rounded=0;orthogonalLoop=1;jettySize=auto;html=1;endArrow=halfCircle;endFill=0;endSize=6;strokeWidth=1;sketch=0;exitX=0;exitY=0.5;exitDx=0;exitDy=0;" parent="1" source="0vZ9dUC26-TVfk1JdIGi-53" edge="1">
          <mxGeometry relative="1" as="geometry">
            <mxPoint x="1568" y="270" as="sourcePoint" />
            <mxPoint x="1478" y="270" as="targetPoint" />
          </mxGeometry>
        </mxCell>
        <mxCell id="0vZ9dUC26-TVfk1JdIGi-55" value="" style="rounded=0;orthogonalLoop=1;jettySize=auto;html=1;endArrow=oval;endFill=1;sketch=0;sourcePerimeterSpacing=0;targetPerimeterSpacing=0;endSize=10;exitX=1;exitY=0.5;exitDx=0;exitDy=0;" parent="1" edge="1">
          <mxGeometry relative="1" as="geometry">
            <mxPoint x="1402" y="270" as="sourcePoint" />
            <mxPoint x="1472" y="270" as="targetPoint" />
          </mxGeometry>
        </mxCell>
        <mxCell id="0vZ9dUC26-TVfk1JdIGi-56" value="Rest APIs" style="text;html=1;align=center;verticalAlign=middle;resizable=0;points=[];autosize=1;strokeColor=none;fillColor=none;rotation=-90;" parent="1" vertex="1">
          <mxGeometry x="1437" y="158" width="80" height="30" as="geometry" />
        </mxCell>
        <mxCell id="0vZ9dUC26-TVfk1JdIGi-57" value="" style="shape=waypoint;sketch=0;fillStyle=solid;size=6;pointerEvents=1;points=[];fillColor=none;resizable=0;rotatable=0;perimeter=centerPerimeter;snapToPoint=1;" parent="1" vertex="1">
          <mxGeometry x="1597" y="200" width="20" height="20" as="geometry" />
        </mxCell>
        <mxCell id="0vZ9dUC26-TVfk1JdIGi-58" value="" style="shape=waypoint;sketch=0;fillStyle=solid;size=6;pointerEvents=1;points=[];fillColor=none;resizable=0;rotatable=0;perimeter=centerPerimeter;snapToPoint=1;" parent="1" vertex="1">
          <mxGeometry x="1597" y="210" width="20" height="20" as="geometry" />
        </mxCell>
        <mxCell id="0vZ9dUC26-TVfk1JdIGi-59" value="" style="shape=waypoint;sketch=0;fillStyle=solid;size=6;pointerEvents=1;points=[];fillColor=none;resizable=0;rotatable=0;perimeter=centerPerimeter;snapToPoint=1;" parent="1" vertex="1">
          <mxGeometry x="1597" y="220" width="20" height="20" as="geometry" />
        </mxCell>
      </root>
    </mxGraphModel>
  </diagram>
</mxfile>
